<svg preserveAspectRatio="none" overflow="visible" style="display: block;" width="20" height="20" viewBox="0 0 20 20" fill="none" xmlns="http://www.w3.org/2000/svg">
<g id="icon/youtube" opacity="0.85">
<path id="Vector" d="M2.08333 5.83333C1.50119 8.58061 1.50119 11.4194 2.08333 14.1667C2.15982 14.4457 2.30762 14.6999 2.51217 14.9045C2.71673 15.1091 2.97101 15.2568 3.25 15.3333C7.71953 16.0739 12.2805 16.0739 16.75 15.3333C17.029 15.2568 17.2833 15.1091 17.4878 14.9045C17.6924 14.6999 17.8402 14.4457 17.9167 14.1667C18.4988 11.4194 18.4988 8.58061 17.9167 5.83333C17.8402 5.55434 17.6924 5.30006 17.4878 5.09551C17.2833 4.89095 17.029 4.74316 16.75 4.66667C12.2805 3.92622 7.71954 3.92622 3.25 4.66667C2.97101 4.74316 2.71673 4.89095 2.51217 5.09551C2.30762 5.30006 2.15982 5.55434 2.08333 5.83333Z" stroke="#F4F1EC" stroke-width="2" stroke-linecap="round" stroke-linejoin="round"/>
<path id="Vector_2" d="M8.33333 12.5L12.5 10L8.33333 7.5V12.5Z" stroke="#F4F1EC" stroke-width="2" stroke-linecap="round" stroke-linejoin="round"/>
</g>
</svg>
